<svg xmlns="http://www.w3.org/2000/svg" width="256" height="256"><path fill-opacity=".016" d="M0 128.004v128.004l128.25-.254 128.25-.254.254-127.75L257.008 0H0v128.004m.485.496c0 70.4.119 99.053.265 63.672.146-35.38.146-92.98 0-128C.604 29.153.485 58.1.485 128.5" fill="#1976D2" fill-rule="evenodd"/><path fill-opacity=".231" d="M35 127v127h185V0H35v127M129 4.96c1.375.462 4.081.885 6.013.94 2.506.071 4.05.816 5.39 2.6 1.032 1.375 2.489 2.5 3.237 2.5.748 0 1.396.787 1.439 1.75.045.995.292 1.224.573.53.272-.671-1.31-2.921-3.517-5-3.609-3.401-4.595-3.799-9.823-3.97-4.269-.14-5.148.032-3.312.65m53.289 3.065c-5.193 4.901-4.493 5.296.843.475C185.262 6.575 187.453 5 188 5c.547 0 2.738 1.575 4.868 3.5 2.131 1.925 4.215 3.5 4.632 3.5.416 0-1.213-1.782-3.621-3.959-2.409-2.177-5.054-3.966-5.879-3.975-.825-.009-3.395 1.773-5.711 3.959M58.813 5.683c.721.289 1.584.253 1.916-.079.332-.332-.258-.568-1.312-.525-1.165.048-1.402.285-.604.604m65 0c.721.289 1.584.253 1.916-.079.332-.332-.258-.568-1.312-.525-1.165.048-1.402.285-.604.604m-6.81 3.933c-3.539 3.197-3.983 4.096-3.828 7.75l.174 4.134.382-4.22c.314-3.48 1.105-4.84 4.505-7.75 2.268-1.942 3.819-3.53 3.447-3.53-.373 0-2.479 1.627-4.68 3.616m-69.871 2.72C46.968 15.851 52.885 28 54.76 28c.963 0 1.169-.674.688-2.25C53.363 18.925 49.215 12.114 48.9 15c-.09.825-.495-.075-.9-2-.687-3.264-.746-3.309-.868-.664m120.883 2.914c-.008 1.512.435 2.75.985 2.75 1.264 0 1.264-2.043 0-4-.755-1.169-.973-.893-.985 1.25m7.761-1.074c.859.859.88 1.534.078 2.5-.853 1.028-.624 1.324 1.024 1.324 1.597 0 2.122-.619 2.122-2.5 0-1.909-.52-2.5-2.2-2.5-1.686 0-1.925.275-1.024 1.176m6.974-.514c.688.278 1.813.278 2.5 0 .688-.277.125-.504-1.25-.504s-1.937.227-1.25.504m11.063.021c.721.289 1.584.253 1.916-.079.332-.332-.258-.568-1.312-.525-1.165.048-1.402.285-.604.604m8.876.046c3.66.332 4.241.72 4.6 3.076.373 2.442.425 2.39.561-.555L208 13l-4.75.175-4.75.174 4.189.38M147 15.309c0 .72.607 2.139 1.349 3.154 1.219 1.667 1.305 1.54.887-1.309-.446-3.041-2.236-4.518-2.236-1.845M95.182 22.5c-1.634 1.375-3.442 2.5-4.017 2.5-1.317 0-1.577.435-4.113 6.868-1.141 2.895-1.658 5.007-1.149 4.692.509-.315 1.185-.007 1.502.684.317.691.328.253.025-.974-.582-2.351.858-5.912 2.25-5.566.451.112.675-.9.498-2.25-.177-1.356.188-2.454.817-2.454.626 0 2.571-1.088 4.322-2.417 1.751-1.329 4.533-2.611 6.183-2.85l3-.433-3.173-.15c-2.086-.099-4.191.706-6.145 2.35m88.117-1.755c4.84.184 12.49.183 17-.002 4.511-.185.551-.335-8.799-.334-9.35.001-13.04.153-8.201.336M148.123 22.5c-.083 1.1-.382 3.125-.665 4.5l-.514 2.5 1.071-2.453c.589-1.349.888-3.374.664-4.5-.396-1.994-.411-1.995-.556-.047M111.5 24c.34.55.816 1 1.059 1s.441-.45.441-1-.477-1-1.059-1-.781.45-.441 1m51.25 3.642c-2.062 2.549-3.75 5.077-3.75 5.618C159 34.661 186.651 62 188.069 62 189.481 62 217 34.531 217 33.122c0-1.257-7.224-9.973-8.335-10.058-.459-.035 1.003 2.024 3.25 4.577 2.247 2.552 4.085 5.023 4.085 5.491C216 34.293 189.216 61 188.051 61 186.747 61 160 34.32 160 33.019c0-.585 1.857-3.079 4.127-5.541 2.27-2.463 3.733-4.476 3.25-4.474-.482.002-2.564 2.089-4.627 4.638M170 31c0 3.73.186 3.991 2.75 3.864 2.253-.112 2.356-.213.569-.561-3.049-.593-2.982-6.013.082-6.617 1.618-.319 1.469-.445-.651-.55-2.564-.127-2.75.134-2.75 3.864m7.906-2.186c.966 1.814.971 2.629.021 3.774-.667.803-.933 1.739-.593 2.079.34.341.91-.14 1.266-1.067.601-1.566.792-1.558 2.665.107 1.978 1.757 1.991 1.748.636-.457-1.178-1.918-1.175-2.582.019-4.5 1.283-2.059 1.261-2.134-.259-.878-1.408 1.164-1.915 1.164-3.325 0-1.513-1.248-1.552-1.162-.43.942m7.763-1.04c.642.409 1.358 2.315 1.59 4.235l.421 3.491.16-3.667c.088-2.016.723-3.893 1.41-4.171.688-.277-.1-.533-1.75-.568-1.67-.035-2.482.266-1.831.68m7.447 3.406c.064 2.376.322 3.532.573 2.57.573-2.192 1.933-2.247 3.12-.127.658 1.176.878.557.8-2.25-.091-3.215-.491-3.927-2.359-4.193-2.05-.291-2.24.065-2.134 4m8.859-1.615c-1.411 3.711-1.227 4.314 1.127 3.698 1.215-.318 2.522.038 3.095.844.763 1.072.855.971.397-.439-.327-1.007-.601-2.357-.609-3-.01-.74-.334-.665-.885.204-.478.754-1.431 1.184-2.118.955-.921-.307-.82-.846.384-2.05 1.878-1.878 2.075-2.777.609-2.777-.563 0-1.463 1.154-2 2.565m-98.162-.882c.721.289 1.584.253 1.916-.079.332-.332-.258-.568-1.312-.525-1.165.048-1.402.285-.604.604M194 29.5c0 .825.675 1.5 1.5 1.5s1.5-.675 1.5-1.5-.675-1.5-1.5-1.5-1.5.675-1.5 1.5m-139 1c0 .825.436 1.5.969 1.5.532 0 .709-.675.393-1.5-.317-.825-.753-1.5-.969-1.5-.216 0-.393.675-.393 1.5m43 0c-.718.865-.815 1.5-.229 1.5.558 0 1.274-.675 1.591-1.5.316-.825.419-1.5.229-1.5-.19 0-.906.675-1.591 1.5m1.881 4.281c-.329 1.988-.183 2.921.372 2.366.504-.504.749-1.981.544-3.282-.315-2.001-.455-1.861-.916.916m4.619 2.851c-2.75 2.523-6.162 5.662-7.583 6.977C95.496 45.924 93.881 47 93.327 47c-.553 0-1.549 1.191-2.212 2.647-.865 1.899 1.098.556 6.947-4.75 4.484-4.068 9.342-8.393 10.795-9.611 1.454-1.218 2.193-2.22 1.643-2.227-.55-.007-3.25 2.051-6 4.573m44.616-2.008c-.079 1.444 2.806 4.964 9.016 11C184.036 71.801 216 106.326 216 109.127c0 .944-8.847 11.461-20.193 24.004-4.294 4.748-7.807 8.914-7.807 9.258 0 .81 13.249-13.583 22.104-24.012 3.793-4.467 6.896-8.684 6.896-9.371 0-2.403-23.645-28.696-45.143-50.197-11.928-11.93-21.899-22.505-22.156-23.5-.392-1.512-.488-1.46-.585.315m-92.383.5c.679.684 1.486.991 1.793.683.308-.308-.247-.867-1.233-1.243-1.425-.542-1.54-.428-.56.56M110.32 43c0 3.575.182 5.038.403 3.25.222-1.788.222-4.712 0-6.5-.221-1.788-.403-.325-.403 3.25m-29.297 1.75c-1.862 3.712-5.413 9.675-7.89 13.25-2.477 3.575-5.597 8.075-6.933 10-2.274 3.278-2.215 3.252.936-.414 3.066-3.567 9.076-12.252 14.468-20.907C83.493 43.646 85.523 38 84.724 38c-.173 0-1.838 3.038-3.701 6.75m-28.88-4.86c-.946.6-1.021 1.067-.25 1.544 1.269.784 3.107-.1 3.107-1.493 0-1.163-1.072-1.182-2.857-.051m143.052 1.61c.02 1.65.244 2.204.498 1.231.254-.973.237-2.323-.037-3-.274-.677-.481.119-.461 1.769m-49.323 3.25c-1.243 1.586-1.208 1.621.378.378 1.666-1.307 2.195-2.128 1.372-2.128-.207 0-.995.788-1.75 1.75M142 47.5c0 .825.177 1.5.393 1.5.216 0 .652-.675.969-1.5.316-.825.139-1.5-.393-1.5-.533 0-.969.675-.969 1.5m-30.921 4.083c.048 1.165.285 1.402.604.605.289-.722.253-1.585-.079-1.917-.332-.332-.568.258-.525 1.312M141.158 53c0 1.375.227 1.938.504 1.25.278-.687.278-1.812 0-2.5-.277-.687-.504-.125-.504 1.25m-52.534 1.539c-.965 2.514-.681 3.163.498 1.136.584-1.004.851-2.036.593-2.293-.257-.258-.749.263-1.091 1.157m19.598 3.154c-2.868 1.999-19.198 2.963-20.289 1.198-.45-.728-.963-.275-1.387 1.227-.369 1.31-1.058 3.282-1.529 4.382C83.815 67.303 81 76.188 81 77.178c0 .452 1.173.822 2.607.822 2.076 0 2.468-.357 1.926-1.75-.773-1.986-.815-2.248-.651-4.059.065-.72.616-1.001 1.225-.625.771.477.696.944-.25 1.544-.83.525-.913.865-.213.875.63.008 2.59-1.335 4.356-2.985s3.614-3 4.106-3c1.974 0 .732-2.003-1.606-2.589-1.375-.345-2.5-1.056-2.5-1.578 0-.523.458-.668 1.019-.321 1.818 1.124 11.132 1.541 10.469.469-.667-1.079 1.763-3.981 3.334-3.981.53 0 1.223.675 1.54 1.5.316.825 1.025 1.5 1.575 1.5s.735-.692.41-1.537c-.324-.846.21-2.421 1.187-3.5 2.118-2.341 1.763-2.414-1.312-.27m36.535 2.057c1.295 1.237 2.892 2.236 3.549 2.22.657-.017.294-.53-.806-1.14-1.1-.611-2.697-1.609-3.549-2.22-.852-.61-.489-.097.806 1.14M98.5 62c-.34.55-.141 1 .441 1S100 62.55 100 62s-.198-1-.441-1-.719.45-1.059 1m54.25 1.391c1.238.547 2.25 1.358 2.25 1.802 0 .444.639.807 1.419.807s2.814.787 4.519 1.75c2.259 1.275 3.299 1.435 3.834.591.53-.838 1.287-.696 2.731.513 3.254 2.726 4.47 4.652 6.5 10.296 1.059 2.942 1.941 4.506 1.961 3.475.02-1.031-1.128-4.469-2.551-7.639-2.843-6.336-4.534-7.529-14.913-10.516-7.385-2.126-8.653-2.364-5.75-1.079m-.75 5.908c-1.375.639-2.994 1.803-3.598 2.585-.604.782-1.566 1.133-2.137.78s-1.565-.007-2.209.768c-.944 1.137-.82 1.328.637.983.994-.236 4.057-.55 6.807-.698 6.814-.366 8.22-1.358 5.397-3.807-1.212-1.05-2.247-1.88-2.3-1.842-.053.037-1.222.591-2.597 1.231M60.672 76.25a266.741 266.741 0 0 0-4.292 7.905c-1.034 2.011-5.813 8.311-10.621 14-4.807 5.69-8.745 10.618-8.75 10.953C36.967 111.898 86.701 166 89.308 166c.613 0-6.314-7.537-15.394-16.75-15.561-15.787-23.477-24.477-32.309-35.466l-3.79-4.715 5.955-7.285c3.275-4.006 7.307-8.731 8.961-10.499 1.653-1.768 4.808-6.83 7.012-11.25 4.334-8.692 4.806-10.616.929-3.785M113 75c0 .55-.338.947-.75.882-.412-.066-1.65-.051-2.75.031-1.974.149-1.975.17-.059 1.619 1.231.931 4.159 1.451 8 1.423l6.059-.045-4.5-2.41c-5.048-2.703-6-2.941-6-1.5m33 3c3.773 1.208 10.87 1.208 9 0-.825-.533-3.75-.931-6.5-.885-3.989.067-4.495.246-2.5.885m-10.75 1.689c.963.252 2.537.252 3.5 0 .963-.251.175-.457-1.75-.457s-2.713.206-1.75.457m6.563-.006c.721.289 1.584.253 1.916-.079.332-.332-.258-.568-1.312-.525-1.165.048-1.402.285-.604.604m4.066.771c-.25.25-2.157.569-4.237.709-2.08.141-3.999.606-4.264 1.034-.597.966 8.564-.157 10.622-1.302 1.306-.726 1.296-.838-.083-.865-.871-.016-1.788.174-2.038.424m10.179.494c1.408.427 3.545 1.304 4.75 1.949 1.206.646 2.192.78 2.192.299 0-1.228-4.658-3.213-7.297-3.11-2.011.078-1.98.154.355.862M126 83c.825.533 1.95.969 2.5.969s.325-.436-.5-.969c-.825-.533-1.95-.969-2.5-.969s-.325.436.5.969m-.527 5.545c2.735 2.45 5.435 4.451 6 4.446.565-.005-1.223-2.018-3.973-4.473s-5.45-4.456-6-4.446c-.55.01 1.238 2.022 3.973 4.473M176.489 91c.369 6.278 2.226 14.618 3.067 13.778.225-.226-.058-1.956-.629-3.844-.572-1.889-1.44-6.359-1.93-9.934l-.891-6.5.383 6.5m-62.931-4.027c-2.526.453-2.138.674 2.75 1.569 3.131.574 5.692.944 5.692.824 0-1.071-6.128-2.808-8.442-2.393m39.442.909c0 .55.45 1.278 1 1.618.55.34 1 .168 1-.382s-.45-1.278-1-1.618c-.55-.34-1-.168-1 .382M55.158 92c0 1.375.227 1.938.504 1.25.278-.687.278-1.812 0-2.5-.277-.687-.504-.125-.504 1.25m92.921.583c.048 1.165.285 1.402.604.605.289-.722.253-1.585-.079-1.917-.332-.332-.568.258-.525 1.312M153.5 93c.34.55.816 1 1.059 1s.441-.45.441-1-.477-1-1.059-1-.781.45-.441 1M55 96.689c0 1.568 5.662 6.188 8.439 6.885 1.256.315 3.809.387 5.673.16 3.072-.375 2.987-.429-.912-.574-5.013-.187-9.434-2.229-11.639-5.377C55.702 96.558 55 96.065 55 96.689m26.912 2.072c-1.127 1.489-1.111 1.556.112.463 1.178-1.053 1.75-.878 3.269 1 1.802 2.228 1.818 2.229.769.082-1.527-3.123-2.643-3.539-4.15-1.545m-4.405 4.228c-.35.566.051.734.941.393 1.732-.665 2.049-1.382.611-1.382-.518 0-1.216.445-1.552.989m-3.694 1.694c.721.289 1.584.253 1.916-.079.332-.332-.258-.568-1.312-.525-1.165.048-1.402.285-.604.604m14.879 6.817c.307 3.3.727 6.188.933 6.417.669.744.161-6.332-.676-9.417-.536-1.973-.623-.945-.257 3m92.308.441c0 .518.445 1.216.989 1.552.566.35.734-.051.393-.941-.665-1.732-1.382-2.049-1.382-.611m1.564 7.766c-.542 1.425-.428 1.54.56.56.684-.679.991-1.486.683-1.793-.308-.308-.867.247-1.243 1.233M90.286 125.5c.008 2.75.202 3.756.432 2.236.229-1.52.223-3.77-.014-5-.237-1.23-.425.014-.418 2.764m69.297-2.857c-.346.904-.394 1.879-.107 2.167.288.288.524-.028.524-.702 0-.674.445-.951.989-.615.566.35.734-.051.393-.941-.752-1.96-1.017-1.946-1.799.091M181 124.356c0 1.252 6.286 15.691 6.665 15.312.205-.204-1.037-3.701-2.759-7.77-3.098-7.321-3.906-8.88-3.906-7.542m-17.305 4.131c.915 1.919 1.841 3.31 2.058 3.093.457-.457-2.578-6.58-3.263-6.58-.251 0 .291 1.569 1.205 3.487m-4.409 2.013c.008 2.75.202 3.756.432 2.236.229-1.52.223-3.77-.014-5-.237-1.23-.425.014-.418 2.764M91.158 134c0 1.375.227 1.938.504 1.25.278-.687.278-1.812 0-2.5-.277-.687-.504-.125-.504 1.25m74.921.583c.048 1.165.285 1.402.604.605.289-.722.253-1.585-.079-1.917-.332-.332-.568.258-.525 1.312M91.903 150.5c-.408 9.685-1.101 15.193-2.247 17.872-.911 2.13-1.656 4.79-1.656 5.912 0 1.52-2.924-.818-11.473-9.172-10.372-10.135-11.677-11.102-13.592-10.077-2.883 1.543-23.296 21.903-24.826 24.762-1.154 2.156-.445 3.086 11.636 15.25 7.077 7.124 13.516 12.946 14.311 12.937.794-.008 5.198-3.46 9.786-7.669 5.491-5.039 8.233-6.998 8.025-5.734-.374 2.265.788 4.419 2.383 4.419.623 0 .259-.661-.809-1.468-1.915-1.449-1.914-1.469.059-1.482 1.1-.008 6.275.645 11.5 1.45 5.225.805 10.357 1.472 11.405 1.482 1.842.017 1.845-.048.095-1.982-1.628-1.799-1.643-2-.155-2 2.12 0 2.19-3.601.092-4.775-.859-.481-1.675-1.641-1.812-2.577-.138-.937-.622-1.652-1.076-1.59-1.392.19-2.536-2.452-1.919-4.433.381-1.222.199-1.637-.523-1.191-.635.393-1.107-.006-1.107-.937 0-.891-1.237-4.18-2.75-7.309-1.642-3.396-2.847-7.703-2.99-10.688-.132-2.75-.584-9.5-1.004-15l-.763-10-.59 14m75.255-11.5c0 1.375.227 1.938.504 1.25.278-.687.278-1.812 0-2.5-.277-.687-.504-.125-.504 1.25m-7 2c0 1.375.227 1.938.504 1.25.278-.687.278-1.812 0-2.5-.277-.687-.504-.125-.504 1.25m7.921 2.583c.048 1.165.285 1.402.604.605.289-.722.253-1.585-.079-1.917-.332-.332-.568.258-.525 1.312m-8.827 3.917c.011 2.2.216 2.982.455 1.738.239-1.244.23-3.044-.02-4s-.446.062-.435 2.262m29.827-.917c.048 1.165.285 1.402.604.605.289-.722.253-1.585-.079-1.917-.332-.332-.568.258-.525 1.312M94 150.559c0 1.451.433 2.292 1 1.941.55-.34 1-1.491 1-2.559S95.55 148 95 148s-1 1.152-1 2.559M126 153c0 .55.477 1 1.059 1s.781-.45.441-1-.816-1-1.059-1-.441.45-.441 1m64.162 1.5c-.076 1.65.526 5.475 1.338 8.5 1.795 6.687 1.782 6.322.198 5.714-1.876-.72-7.712 1.952-7.619 3.488.061 1.005.193 1.016.583.048.801-1.984 2.338-1.451 2.338.809 0 1.318-.45 1.831-1.25 1.426-.687-.348-.575-.037.25.691 2.178 1.923 4.336 6.471 3.62 7.63-.366.593.757.957 2.776.9 2.55-.072 3.252-.461 2.828-1.565-.364-.949-.149-1.213.606-.746.644.398 1.17 1.446 1.17 2.331 0 .884.254 1.353.564 1.043.311-.311.253-2.23-.129-4.266-.514-2.738-.946-3.35-1.659-2.352-.716 1.001-.81.873-.365-.497.33-1.015-.504-5.965-1.854-11-1.349-5.035-2.634-10.504-2.855-12.154l-.402-3-.138 3M95 154.452c0 .754 7.191 16.976 8 18.048.415.55 1.1 2.125 1.522 3.5.422 1.375 1.672 4.525 2.778 7 1.106 2.475 2.132 5.104 2.281 5.842.383 1.91 1.653 2.963 1.396 1.158-.505-3.546.113-6.768 1.273-6.639 1.5.167 1.772-.499 1.68-4.111-.063-2.437-.168-2.522-.93-.75-.82 1.908-.863 1.897-.93-.25-.038-1.237-.576-2.137-1.194-2-1.327.295-6.795-8.941-6.843-11.559-.018-.995-.483-1.531-1.033-1.191-.551.34-1.032-.419-1.07-1.691-.067-2.181-.118-2.198-.93-.309-.767 1.785-.867 1.806-.93.191-.038-.995-.52-1.531-1.07-1.191-.55.34-1-.272-1-1.359 0-2.666-1.015-5.141-2.107-5.141-.491 0-.893.203-.893.452m77.46 1.422c.442 1.391-.832 3.179-4.932 6.927-3.041 2.778-5.528 5.508-5.528 6.065 0 .558 2.331-1.451 5.181-4.464 2.849-3.012 5.741-5.262 6.427-4.999.96.368 1.011-.198.221-2.462-1.11-3.185-2.347-4.148-1.369-1.067m-116.591 6.819c-4.525 4.294-9.835 9.558-11.798 11.699-7.157 7.802-7.657 6.199 6.271 20.127C57.207 201.383 63.374 207 64.046 207 65.941 207 84 188.846 84 186.942c0-.93.686-3.635 1.525-6.012l1.525-4.322-5.775-5.882c-3.176-3.235-8.341-8.122-11.476-10.861l-5.702-4.979-8.228 7.807M160.218 158c-.01 1.375.342 3.625.782 5 .627 1.959.797 2.067.782.5-.01-1.1-.362-3.35-.782-5-.686-2.695-.765-2.746-.782-.5M130 159.882c0 .55.45 1.278 1 1.618.55.34 1 .168 1-.382s-.45-1.278-1-1.618c-.55-.34-1-.168-1 .382m45.097 1.618c0 .55 1.531 3.925 3.403 7.5s3.403 6.05 3.403 5.5c0-.55-1.531-3.925-3.403-7.5s-3.403-6.05-3.403-5.5m-41.51 3.5c.375 1.375.998 2.725 1.383 3 .386.275 1.211 1.4 1.835 2.5.94 1.658 1.139 1.713 1.165.321.016-.923-.562-2.273-1.285-3-.723-.726-1.869-2.221-2.548-3.321-1.141-1.851-1.182-1.814-.55.5m-44.92 10.667c-1.376 1.375-.617 3.133 1.153 2.67 1.001-.262 2.406.23 3.122 1.093 1.888 2.275 2.849 1.927 2.32-.839-.264-1.384-1.376-2.655-2.611-2.987-2.78-.745-3.183-.739-3.984.063m76.528 2.833c.02 1.65.244 2.204.498 1.231.254-.973.237-2.323-.037-3-.274-.677-.481.119-.461 1.769m18.702 1.5c1.572 3.513 1.886 5.73 1.43 10.112-.32 3.086-.18 5.861.313 6.166.494.305.725-1.244.515-3.449-.21-2.201.081-4.465.647-5.031 1.038-1.038-1.775-9.138-3.924-11.298-.547-.55-.088 1.025 1.019 3.5m-74.818 4.583c.048 1.165.285 1.402.604.605.289-.722.253-1.585-.079-1.917-.332-.332-.568.258-.525 1.312m57 0c.048 1.165.285 1.402.604.605.289-.722.253-1.585-.079-1.917-.332-.332-.568.258-.525 1.312m-75.752.697c-.611.989-.631.971 2.746 2.416 2.168.927 2.76.801 3.759-.798.652-1.044.844-1.935.426-1.979-4.333-.464-6.49-.352-6.931.361m107.868 3.22c.02 1.65.244 2.204.498 1.231.254-.973.237-2.323-.037-3-.274-.677-.481.119-.461 1.769m-103.037 1.236c-1.882 1.31-2.717 1.396-4.25.439-1.049-.656-1.908-.814-1.908-.352 0 1.444 4.287 3.073 9.75 3.705 6.016.695 6.902-.529 1.734-2.397-1.933-.7-3.257-1.69-2.941-2.201.773-1.25.375-1.116-2.385.806m72 .264c0 1.375.227 1.938.504 1.25.278-.687.278-1.812 0-2.5-.277-.687-.504-.125-.504 1.25M154 192.5c1.292 1.375 2.516 2.5 2.721 2.5.831 0-3.29-4.94-4.145-4.969-.509-.017.132 1.094 1.424 2.469m14.158 2.5c0 1.375.227 1.938.504 1.25.278-.687.278-1.812 0-2.5-.277-.687-.504-.125-.504 1.25m-48.128-.25c-.021.87-2.08 1.259-6.78 1.28-5.124.023-6.323.279-4.979 1.062.974.567 1.549 1.39 1.277 1.83-.49.793 8.775 2.078 14.984 2.078 1.781 0 4.753-.638 6.603-1.419l3.365-1.418-6.274-.714c-4.151-.471-6.594-1.26-7.22-2.331-.572-.98-.957-1.125-.976-.368m23.719 4.102c-.446 1.704-.116 2.151 1.595 2.163 1.758.013 1.879.194.656.985-1.085.701-.185.974 3.25.985 5.753.018 6.7-2.345 1.1-2.746-2.005-.144-4.184-.998-4.843-1.898-1.076-1.473-1.253-1.422-1.758.511m-29.936-.169c.721.289 1.584.253 1.916-.079.332-.332-.258-.568-1.312-.525-1.165.048-1.402.285-.604.604M138 199c-2.35.753-2.302.807.809.9 1.972.06 3.059-.304 2.691-.9-.34-.55-.704-.955-.809-.9-.105.055-1.316.46-2.691.9m-51.748 3.5c.011 2.2.216 2.982.455 1.738.239-1.244.23-3.044-.02-4s-.446.062-.435 2.262m113.348.6c-.366 2.292-.471 4.362-.232 4.601.238.239.748-1.427 1.132-3.701.384-2.274.489-4.345.232-4.601-.256-.256-.766 1.409-1.132 3.701m-30.521-1.517c.048 1.165.285 1.402.604.605.289-.722.253-1.585-.079-1.917-.332-.332-.568.258-.525 1.312m17.079.417c0 1.375.227 1.938.504 1.25.278-.687.278-1.812 0-2.5-.277-.687-.504-.125-.504 1.25m-28.345.683c.721.289 1.584.253 1.916-.079.332-.332-.258-.568-1.312-.525-1.165.048-1.402.285-.604.604m11.266 2.9c.048 1.165.285 1.402.604.605.289-.722.253-1.585-.079-1.917-.332-.332-.568.258-.525 1.312m13.865 2.261c-2.363 1.914-2.184 5.229.275 5.077 1.003-.062 1.01-.188.031-.583-1.94-.783-1.479-2.934 1-4.664 1.238-.863 1.962-1.593 1.611-1.622-.352-.028-1.664.778-2.917 1.792M85.158 210c0 1.375.227 1.938.504 1.25.278-.687.278-1.812 0-2.5-.277-.687-.504-.125-.504 1.25m85 1c0 1.375.227 1.938.504 1.25.278-.687.278-1.812 0-2.5-.277-.687-.504-.125-.504 1.25m-86.079 3.583c.048 1.165.285 1.402.604.605.289-.722.253-1.585-.079-1.917-.332-.332-.568.258-.525 1.312m109.734-.9c.721.289 1.584.253 1.916-.079.332-.332-.258-.568-1.312-.525-1.165.048-1.402.285-.604.604M46 219.5c0 1.556-.567 2.5-1.5 2.5-.825 0-1.5.675-1.5 1.5 0 .933-.944 1.5-2.5 1.5-1.833 0-2.5.533-2.5 2s.667 2 2.5 2c1.375 0 2.5.45 2.5 1s.675 1 1.5 1c1.001 0 1.5 1.001 1.5 3.008v3.009l55.25-.259 55.25-.258.292-7.75c.265-7.031.481-7.75 2.326-7.75 1.903 0 2.013.515 1.708 8.002l-.326 8.003 24.25-.003L209 237v-2.571c0-3.206 2.087-5.376 5.434-5.653 3.902-.323 3.504-3.776-.434-3.776-1.922 0-3-.509-3-1.417 0-.779-.47-1.573-1.044-1.764-.575-.192-1.121-1.354-1.213-2.584l-.169-2.235H46v2.5m-5.5 1.5c.34.55.816 1 1.059 1s.441-.45.441-1-.477-1-1.059-1-.781.45-.441 1m172 0c.34.55.816 1 1.059 1s.441-.45.441-1-.477-1-1.059-1-.781.45-.441 1M78 227.434c0 5.899.203 6.566 2 6.566 1.496 0 2.02-.693 2.079-2.75l.079-2.75 1.004 2.75c.783 2.142 1.65 2.75 3.921 2.75H90v-6.5c0-5.833-.205-6.5-2-6.5-1.512 0-2.004.672-2.015 2.75l-.014 2.75-1.259-2.5c-.789-1.567-2.276-2.618-3.985-2.816-2.725-.317-2.727-.311-2.727 6.25m13 .066v6.5h5.073c4.285 0 5.022-.271 4.738-1.742-.192-.996-1.616-2.017-3.323-2.382l-2.988-.639 2.75-.119c1.725-.074 2.75-.677 2.75-1.618 0-.937-1.033-1.551-2.75-1.636-2.7-.134-2.705-.145-.25-.596 1.375-.253 2.984-.856 3.575-1.341 1.218-.999 4.425 4.877 4.425 8.107 0 1.299.678 1.966 2 1.966 1.514 0 2.002-.669 2.007-2.75.003-1.512.9-4.1 1.993-5.75l1.987-3 .006 5.75c.006 5.012.255 5.75 1.937 5.75 1.207 0 2.093-.843 2.364-2.25l.434-2.25.136 2.25c.101 1.679.753 2.25 2.566 2.25 1.726 0 2.557-.653 2.864-2.25l.434-2.25.136 2.25c.093 1.538.769 2.25 2.136 2.25 1.795 0 2-.667 2-6.5 0-6.3-.079-6.5-2.548-6.5-1.904 0-2.879.786-3.854 3.105l-1.306 3.106-.61-3.049c-.584-2.921-.82-3.046-5.65-3.009-3.59.028-5.327.515-6.036 1.693-.919 1.527-1.077 1.519-2.046-.096-.838-1.398-2.447-1.75-8-1.75H91v6.5m39.571-1.096c-2.018 6.942-1.981 7.596.429 7.596 1.111 0 2-.667 2-1.5 0-1.915 2.608-1.963 3.338-.062.36.938 1.962 1.419 4.607 1.382 3.764-.052 4.609-.738 4.091-3.32-.11-.55.878.012 2.196 1.25s3.207 2.25 4.197 2.25c1.681 0 1.694-.163.197-2.448-.983-1.501-1.221-2.684-.615-3.059 1.373-.848 1.239-4.843-.211-6.293-.66-.66-3.135-1.2-5.5-1.2H141l-.079 5.75-.079 5.75-2.004-5.75c-1.672-4.796-2.394-5.75-4.35-5.75-1.978 0-2.593.848-3.917 5.404M163 227.5c0 5.833.205 6.5 2 6.5 1.4 0 2-.667 2-2.223v-2.222l1.557 2.222c.856 1.223 2.431 2.223 3.5 2.223 2.079 0 2.611-1.469.912-2.519-.598-.37-.76-2.076-.386-4.07.852-4.541-.813-6.411-5.705-6.411H163v6.5m-17.187-1.817c.721.289 1.584.253 1.916-.079.332-.332-.258-.568-1.312-.525-1.165.048-1.402.285-.604.604M167 226c0 .55.45 1 1 1s1-.45 1-1-.45-1-1-1-1 .45-1 1m-127 7c0 .55.45 1 1 1s1-.45 1-1-.45-1-1-1-1 .45-1 1m172 0c0 .55.45 1 1 1s1-.45 1-1-.45-1-1-1-1 .45-1 1m-100 12.5c0 2.997.323 3.483 2.25 3.384 1.693-.087 1.817-.229.5-.573-.963-.252-1.75-.842-1.75-1.311s.787-1.059 1.75-1.311c1.667-.435 1.667-.463 0-.573-.963-.064-1.75-.533-1.75-1.043 0-.509.787-1.132 1.75-1.384 1.317-.344 1.193-.486-.5-.573-1.927-.099-2.25.387-2.25 3.384m8.813-2.817c.721.289 1.584.253 1.916-.079.332-.332-.258-.568-1.312-.525-1.165.048-1.402.285-.604.604m5.937-.021c.688.278 1.813.278 2.5 0 .688-.277.125-.504-1.25-.504s-1.937.227-1.25.504m5.368 3.088c.117 3.7.128 3.71.838.75l.72-3 .77 2.75c1.182 4.218 3.581 3.518 3.422-1l-.131-3.75-.641 3.5-.641 3.5-1.176-3.25c-1.585-4.384-3.306-4.112-3.161.5m7.882-.32c0 2.826.391 3.57 1.878 3.57 1.032 0 2.469-.713 3.192-1.584 1.671-2.013.125-4.782-2.922-5.236-1.856-.276-2.148.166-2.148 3.25m-21.596.57c.069 1.794.731 2.59 2.346 2.82 1.647.233 2.229-.169 2.171-1.5-.046-1.051-.292-1.291-.583-.57-.832 2.06-3.175 1.413-3.618-1-.359-1.958-.4-1.925-.316.25m22.596-.5c0 1.982.439 2.562 1.75 2.31.963-.186 1.75-1.225 1.75-2.31s-.787-2.124-1.75-2.31c-1.311-.252-1.75.328-1.75 2.31m-15.783 1.147c-.163 1.974.247 2.331 2.544 2.217 2.358-.117 2.426-.197.489-.57-2.674-.515-2.97-1.998-.5-2.511 1.509-.314 1.469-.441-.294-.926-1.609-.442-2.086-.061-2.239 1.79m-18.467 2.015c.688.278 1.813.278 2.5 0 .688-.277.125-.504-1.25-.504s-1.937.227-1.25.504" fill="#1976D2" fill-rule="evenodd"/><path fill-opacity=".435" d="M35 126.5V253h185V0H35v126.5M50.088 5.75c-4.635 4.33-4.777 7.783-.646 15.708 1.942 3.727 3.243 7.243 2.89 7.813-.361.585-.159.74.463.356.692-.428 1.354.651 1.775 2.892.888 4.735-.254 5.687-1.733 1.444-1.023-2.934-1.268-3.113-1.934-1.412-1.186 3.031-1.029 7.923.297 9.249 1.708 1.708 3.8 1.484 3.8-.407 0-1.018.55-1.396 1.5-1.031.825.316 1.5.139 1.5-.393 0-.533.477-.969 1.059-.969s.81.403.506.895c-.636 1.03 1.936 2.271 2.837 1.369 1.166-1.165.644-5.411-.572-4.659-.814.503-.95.15-.447-1.16.397-1.036.414-1.576.037-1.198-.377.377-1.526-.383-2.553-1.689C56.74 29.854 56.546 29 58.059 29c.582 0 .738.52.346 1.155-.446.721-.274.882.457.43.644-.398.924-1.123.622-1.611-.302-.489.783-3.27 2.412-6.181 1.628-2.911 3.233-6.868 3.565-8.793.826-4.784-2.114-9.481-6.483-10.354-5.02-1.004-5.747-.833-8.89 2.104m75.257-1.516c-2.638.537-5.869 2.355-8.852 4.981-4.145 3.649-4.637 4.507-4.185 7.296.678 4.179-.46 6.008-2.931 4.708-1.032-.543-3.779-1.302-6.105-1.687-3.521-.583-4.77-.311-7.479 1.634-1.788 1.284-4.092 2.784-5.12 3.334-1.028.55-3.296 4.375-5.041 8.5-4.997 11.818-8.853 18.678-17.142 30.499-4.242 6.05-9.075 13.698-10.74 16.996-1.665 3.298-6.614 10.273-10.997 15.501-10.938 13.042-10.888 12.891-6.21 18.723 8.321 10.371 17.532 20.472 32.765 35.931l15.913 16.149-1.188 3.601c-.653 1.98-1.266 3.592-1.361 3.581-.094-.01-4.855-4.51-10.58-10C70.368 158.492 65.004 154 64.173 154 62.056 154 37 179.272 37 181.408 37 183.197 62.297 209 64.051 209c.534 0 4.566-3.435 8.96-7.633 6.491-6.202 7.989-7.228 7.989-5.475 0 1.396.906 2.502 2.567 3.134 1.772.673 2.414 1.517 2.072 2.725-.272.962-.796 4.552-1.163 7.978l-.667 6.228-19.155.272-19.154.271-.316 2.75c-.328 2.844-2.184 3.907-2.184 1.25 0-.825-.675-1.5-1.5-1.5-1.982 0-1.933 2.62.063 3.386 2.217.851.786 2.614-2.122 2.614-1.774 0-2.441.546-2.441 2 0 1.467.667 2 2.5 2 1.556 0 2.5.567 2.5 1.5 0 .825-.45 1.5-1 1.5s-1 .675-1 1.5.675 1.5 1.5 1.5 1.5-.675 1.5-1.5c0-2.657 1.856-1.594 2.184 1.25l.316 2.75 55.5-.377c30.525-.207 55.718-.575 55.984-.817.266-.242.654-3.806.862-7.919.516-10.224 2.654-9.495 2.654.904 0 6.763.222 7.668 2 8.145 1.1.295 12.012.543 24.25.55L209 238v-3c0-2 .5-3 1.5-3 .825 0 1.5-.675 1.5-1.5 0-1 1-1.5 3-1.5 2.333 0 3-.444 3-2s-.667-2-3-2c-2 0-3-.5-3-1.5 0-.825-.675-1.5-1.5-1.5-1 0-1.5-1-1.5-3v-3h-36.856l-.652-5.75c-.637-5.611-2.273-16.247-4.487-29.152-.604-3.522-1.527-7.205-2.051-8.185-.525-.98-.934-2.599-.909-3.597.046-1.862 9.955-11.291 9.955-9.473 0 .553 2.686 6.598 5.97 13.432 5.529 11.509 5.882 12.656 4.79 15.55-.911 2.414-.904 3.887.03 6.471 1.936 5.353 1.576 10.453-.791 11.204-1.101.35-2.508 1.582-3.127 2.739-.917 1.714-.793 2.346.675 3.419 2.67 1.952 8.276 2.74 12.321 1.732 8.803-2.196 9.24-16.486 1.357-44.39-1.632-5.775-3.517-14.408-4.19-19.185l-1.223-8.684 11.707-13.281c6.439-7.304 12.833-14.757 14.21-16.562l2.503-3.281-5.668-6.929c-9.435-11.532-26.365-29.616-44.95-48.015C154.896 41.474 150 35.984 150 34.313c0-1.272-.501-2.313-1.113-2.313-.732 0-.877-1.115-.423-3.25.38-1.788.923-5.611 1.206-8.498l.515-5.247-5.595-5.376c-4.851-4.661-6.224-5.432-10.342-5.808-2.611-.238-6.618-.052-8.903.413M181.789 8c-3.085 2.75-6.126 5-6.758 5-.671 0-.823.52-.365 1.25.431.688.661 2 .51 2.917-.151.923.53 1.876 1.525 2.134 1.414.367 1.317.492-.451.583-1.238.064-2.25.566-2.25 1.116 0 .626 6.126 1 16.379 1h16.378l4.715 5.518 4.714 5.519-13.396 13.481C195.422 53.933 188.767 60 188 60c-.767 0-7.426-6.071-14.798-13.49l-13.405-13.49 4.269-5.098c2.347-2.804 5.345-5.508 6.661-6.008 1.316-.501 2.127-1.341 1.801-1.868-.326-.527-1.253-.705-2.06-.395-.807.309-1.468.065-1.468-.544S169.675 18 170.5 18c1.829 0 1.86-.942.108-3.25-2.309-3.042-3.608-2.02-3.608 2.839 0 4.001-.569 5.239-4.446 9.671l-4.446 5.083 2.16 3.078c2.638 3.76 22.018 23.065 25.337 25.24 2.181 1.429 2.616 1.425 4.861-.047 3.197-2.094 22.605-21.501 25.33-25.327l2.096-2.944-4.446-5.083c-3.877-4.432-4.446-5.67-4.446-9.671V13h-4.59c-4.093 0-5.197-.541-10.199-5-3.086-2.75-5.881-5-6.211-5-.33 0-3.125 2.25-6.211 5M53.441 5.574c-1.067.866-1.302 1.242-.521.836 1.098-.571 1.233-.304.598 1.176-1.666 3.876-1.68 8.2-.038 11.375 1.948 3.768 2.429 3.487 4.76-2.782 1.491-4.012 1.652-4.18 1.129-1.179-.335 1.925-1.219 4.692-1.963 6.149-1.119 2.191-1.125 2.839-.035 3.744 1.027.853 1.904.018 3.974-3.785C65.512 13.451 64.556 6 59.406 6c-1.428 0-2.256-.434-1.906-1 .973-1.575-1.912-1.167-4.059.574M183 9.04l-4.5 3.955 9.5-.028 9.5-.027L193 9c-2.475-2.167-4.725-3.935-5-3.928-.275.008-2.525 1.793-5 3.968m-58.5-2.343c-3.185.807-8.539 5.275-9.569 7.985-1.273 3.347-.087 4.985 1.73 2.391 1.527-2.179 4.041-2.513 10.666-1.419 2.55.422 3.387.905 2.508 1.448-1.607.993-.226 2.582 2.665 3.064 1.195.2 1.899-.169 1.75-.916-.145-.726.769-1.25 2.179-1.25 3.149 0 9.355 8.485 6.897 9.429-1.697.651-3.593-.188-2.912-1.289.245-.397-1.189-.531-3.186-.298l-3.632.424 2.952 2.385 2.952 2.385-3.5-.268c-1.925-.147-4.095-.83-4.821-1.518-1.342-1.269-2.55-1.434-11.953-1.637l-5.274-.113.488-3c.487-2.999.487-2.999-.621.25-1.112 3.261-2.819 4.418-2.819 1.911 0-.737-1.125-1.853-2.5-2.479-1.521-.693-2.5-.756-2.5-.161 0 .539.525.979 1.167.979.641 0 .91.256.597.569-.313.313-1.491-.006-2.618-.71-2.309-1.442-7.646-.164-7.646 1.832 0 .628-.338 1.48-.75 1.892-1.77 1.771-.541 2.51 1.715 1.032 4.306-2.822 11.307-1.768 15.749 2.37 2.713 2.527 4.262 2.539 6.75.051 2.126-2.126 3.1-1.556 2.6 1.521-.173 1.069.417 2.79 1.311 3.826 1.538 1.782 1.5 1.844-.701 1.158-1.279-.398-4.317-.754-6.75-.791-2.433-.037-4.484-.558-4.558-1.158-.073-.601-.436 1.089-.806 3.755-.371 2.667-.238 6.974.294 9.573.862 4.204.719 5.062-1.292 7.783-1.707 2.308-2.025 3.515-1.297 4.927.531 1.029.742 2.495.47 3.259-.304.854-.056 1.118.644.686.664-.41 1.468.188 1.929 1.435.435 1.176 1.097 2.126 1.471 2.11.374-.015 3.277 1.176 6.451 2.647 8.346 3.869 17.473 3.841 22.598-.068 4.896-3.735 4.945-7.284.172-12.567-1.925-2.131-3.507-4.72-3.515-5.753-.013-1.579-.17-1.64-.985-.379-.533.825-.976.993-.985.372-.008-.62.66-1.687 1.485-2.372.825-.685 1.5-2.072 1.5-3.083 0-1.011.606-2.404 1.346-3.095.94-.879 1.117-2.267.588-4.615-.735-3.257-.7-3.306 1.154-1.627 1.825 1.651 1.912 1.634 1.912-.375 0-1.158-.703-2.499-1.563-2.98-1.418-.794-1.418-.996 0-2.173.86-.713 1.563-2.79 1.563-4.615 0-1.826.45-3.597 1-3.937 2.974-1.838-.491-10.727-5.959-15.284-3.582-2.986-11.77-4.727-16.541-3.519M49.2 9.2c-1.633 1.633-1.508 2.8.3 2.8.833 0 1.5-.889 1.5-2 0-2.331-.186-2.414-1.8-.8M179 16.073c0 1.431.539 1.97 1.739 1.739 2.606-.502 2.897-3.812.334-3.812-1.431 0-2.073.642-2.073 2.073m5-.073c-.94 1.756-.76 2 1.465 2 2.758 0 2.824-.083 1.928-2.418-.824-2.147-2.105-1.989-3.393.418m5 0c0 1.467.667 2 2.5 2s2.5-.533 2.5-2-.667-2-2.5-2-2.5.533-2.5 2m6 0c0 1.1.45 2 1 2s1-.9 1-2-.45-2-1-2-1 .9-1 2m3.429 0c0 1.417.666 2 2.285 2 1.619 0 2.286-.583 2.286-2s-.667-2-2.286-2-2.285.583-2.285 2m6 0c0 1.1.578 2 1.285 2S207 17.1 207 16s-.579-2-1.286-2c-.707 0-1.285.9-1.285 2m-83.886 1.748c-.832 2.169-.652 3.252.54 3.252.596 0 .894-.562.663-1.25-.232-.687.24-1.738 1.049-2.333 1.275-.94 1.259-1.084-.12-1.084-.874 0-1.833.637-2.132 1.415M169 31c0 3.778.167 4 3 4 1.65 0 3-.498 3-1.107s-.661-.853-1.468-.544c-.807.31-1.734.133-2.059-.393-.325-.526.111-.956.968-.956S174 31.55 174 31s-.702-1-1.559-1-1.276-.457-.931-1.016c.346-.559 1.016-.777 1.49-.484.474.293 1.144.075 1.49-.484.373-.604-.614-1.016-2.431-1.016-2.902 0-3.059.205-3.059 4m8.232-2c.999 1.599.999 2.401 0 4-.687 1.1-.822 2-.299 2 .522 0 1.241-.472 1.597-1.049.442-.714 1.105-.669 2.083.143 1.912 1.587 3.01.362 1.407-1.57-1.02-1.229-1.02-1.819 0-3.048 1.643-1.979.483-3.139-1.496-1.496-1.042.865-1.524.91-1.524.142 0-.617-.679-1.122-1.508-1.122-1.259 0-1.302.332-.26 2M185 27.979c.825.521 1.515 2.09 1.534 3.486.041 3.161 1.95 2.897 2.008-.278.024-1.272.699-2.727 1.5-3.234 1.031-.652.286-.922-2.542-.922-2.909 0-3.591.258-2.5.948m7 2.958c0 2.234.45 4.063 1 4.063s1-.745 1-1.655c0-1.54.127-1.54 1.829 0 2.521 2.281 2.671 2.164 2.671-2.095 0-3.5-.217-3.771-3.25-4.063-3.185-.307-3.25-.232-3.25 3.75m9.091-.304c-.948 3.433-.41 6.526.629 3.617.246-.687 1.047-1.25 1.78-1.25.733 0 1.534.563 1.78 1.25.975 2.729 1.959-.426 1.084-3.476-1.355-4.726-3.988-4.797-5.273-.141m-6.622-1.583c-.95 1.538.351 2.53 1.635 1.246.718-.718.735-1.277.052-1.699-.56-.346-1.319-.142-1.687.453M100 30.8c0 .44.493 1.293 1.096 1.896.795.795.622 2.097-.631 4.736-.95 2.002-1.555 3.802-1.346 4.001.21.199 2.856-1.846 5.881-4.543 4.488-4.002 5.224-5.084 4-5.882-1.803-1.175-9-1.341-9-.208M57 34c0 .55.477 1 1.059 1s.781-.45.441-1-.816-1-1.059-1-.441.45-.441 1m39 1c0 2.274 2.508 2.725 3.324.598.628-1.636-.11-2.598-1.991-2.598C96.6 33 96 33.9 96 35m30-.155c0 2.357 3.069 5.155 5.654 5.155 1.785 0 5.077-2.748 6.616-5.523.343-.619-.978-1.022-3.351-1.022-2.506 0-3.919.458-3.919 1.272 0 1.465-2.601 1.727-3.453.349-.314-.509.222-1.131 1.191-1.384 1.341-.35 1.224-.488-.488-.576-1.562-.081-2.25.448-2.25 1.729m19.5.155c-.34.55-.174 1 .368 1s1.191.788 1.443 1.75c.281 1.077.502.692.573-1 .115-2.722-1.191-3.681-2.384-1.75m-44.794 8.159C92.54 50.69 89 55.2 89 58.076c0 1.906 16.174.695 19.458-1.457 2.345-1.536 2.572-2.14 1.857-4.935-.448-1.751-.801-6.222-.783-9.934.017-3.712.017-6.739 0-6.725-.018.014-3.989 3.674-8.826 8.134M173 40.5c0 .825.563 1.507 1.25 1.515.833.011.75.339-.25.985-1.293.835-1.266.971.191.985 2.359.021 3.283-1.866 1.289-2.631-1.317-.505-1.38-.802-.314-1.478 1.022-.647.924-.849-.416-.861-.963-.008-1.75.66-1.75 1.485m4.793 1.198c.499 2.61.543 2.626 1.329.5 1.022-2.762 3.304-2.937 2.588-.198-.3 1.148-.03 2 .634 2 .636 0 1.156-1.125 1.156-2.5 0-2.131-.459-2.5-3.111-2.5-2.841 0-3.067.235-2.596 2.698m7.587-1.246c-.738 1.924.347 3.548 2.37 3.548 1.399 0 1.367-.194-.224-1.358-1.805-1.319-1.804-1.388.058-2.469 1.755-1.019 1.766-1.115.135-1.143-.98-.016-2.033.623-2.339 1.422m4.635 1.298c.011 2.001.258 2.366.908 1.341.49-.775.66-2.013.377-2.75-.811-2.115-1.301-1.577-1.285 1.409M192 40.059c0 .582.45.781 1 .441s1-.816 1-1.059-.45-.441-1-.441-1 .477-1 1.059m3 1.441c0 1.72.546 2.495 1.75 2.485 1.496-.013 1.532-.157.25-.985-1.333-.862-1.333-.973 0-1 1.229-.025 1.254-.187.137-.894-1.151-.729-1.151-.948 0-1.406.95-.378.833-.566-.387-.621-1.221-.055-1.75.677-1.75 2.421m4-.214c0 1.619.583 2.285 2 2.285s2-.666 2-2.285c0-1.619-.583-2.286-2-2.286s-2 .667-2 2.286m-49.91.977c-.513 1.351-2.053 3.307-3.42 4.347-1.638 1.245-2.714 3.311-3.152 6.054l-.665 4.164 6.436 3.071c3.54 1.69 9.31 3.797 12.824 4.684 3.823.964 7.49 2.65 9.134 4.198 2.881 2.713 6.753 11.66 6.753 15.602 0 2.975.577 3.431 19.222 15.196 8.648 5.457 15.724 10.146 15.725 10.421.002.275-6.255 4.45-13.903 9.278l-13.906 8.779 2.048 4.721c1.127 2.597 2.385 5.089 2.796 5.537.714.778 9.413-8.322 21.316-22.299 3.998-4.695 5.288-6.902 4.674-8-3.233-5.783-41.335-46.653-55.825-59.882-8.955-8.175-9.14-8.283-10.057-5.871m-57.59-.138c-1.191.585-2.706 3.191-3.748 6.446-.961 3.006-2.838 7.144-4.17 9.197-1.333 2.053-2.98 5.645-3.661 7.982C79.24 68.088 78.08 70 77.342 70c-1.694 0-1.768 2.679-.092 3.286.995.36.988.896-.034 2.624-.706 1.194-1.025 2.59-.709 3.101.316.512-.569 1.217-1.966 1.568-1.398.351-2.541 1.237-2.541 1.97 0 .733-.52 1.654-1.156 2.047-.827.511-.976-.185-.525-2.441.363-1.814.217-3.155-.344-3.155-.536 0-.975.9-.975 2 0 1.111-.667 2-1.5 2-.825 0-1.396.338-1.268.75.381 1.229-3.559 5.25-5.143 5.25-1.04 0-.814.607.778 2.091 3.331 3.103 2.401 5.446-2.083 5.246-2.822-.127-3.528.167-3.098 1.287 1 2.607 6.681 4.69 13.693 5.021 6.788.321 6.921.279 10.189-3.289l3.312-3.615 2.959 4.666c2.414 3.807 3.08 6.179 3.615 12.88 1.129 14.152 2.731 24.028 3.66 22.562.471-.742.862-2.587.871-4.099.008-1.512.427-2.75.93-2.75.715 0 2.39-10.807 2.556-16.5.016-.55.377-1.258.802-1.573.876-.65-.891-9.889-2.759-14.427-.679-1.65-1.806-5.138-2.504-7.75S92.296 84 91.753 84c-.568 0-.683.955-.273 2.25.781 2.462.806 2.98.483 10.101-.258 5.673-1.526 4.463-2.463-2.351-.722-5.247-2.459-8.959-2.485-5.309-.025 3.692-1.85 3.567-2.889-.197-.54-1.956-1.946-4.338-3.125-5.292l-2.143-1.735 3.173-9.984c5.268-16.576 8.885-24.501 11.665-25.557 1.504-.572 2.325-1.574 2.127-2.596-.405-2.088-1.757-2.465-4.323-1.205M192 43c0 .55.477 1 1.059 1s.781-.45.441-1-.816-1-1.059-1-.441.45-.441 1M84.353 46.663c-.994 1.56-2.075 3.062-2.403 3.337-1.002.841-1.933 4.002-1.169 3.968.885-.039 4.843-2.974 4.399-3.261-.176-.114.174-1.507.778-3.096 1.486-3.909.611-4.427-1.605-.948m-44.657-.026c-.383.383-.696 1.351-.696 2.152 0 1.241.246 1.253 1.666.083 1.498-1.234 1.6-1.106 1.01 1.264-.726 2.914 1.385 5.563 3.427 4.301.654-.405 3.566-.658 6.47-.563 2.904.094 5.565-.288 5.913-.851.348-.563 1.082-1.023 1.632-1.023.55 0 .763.383.474.851-.289.469 2.212.934 5.558 1.034 5.97.179 6.072.138 5.476-2.237-.483-1.927-.154-2.538 1.616-3.001 1.719-.45 1.954-.851 1.033-1.772-.92-.92-1.54-.9-2.733.09-1.046.869-1.542.919-1.542.157 0-.617-.675-1.122-1.5-1.122s-1.5.505-1.5 1.122c0 .752-.521.69-1.576-.185-1.284-1.066-1.724-1.069-2.373-.019-.55.889-1.379 1.003-2.674.368-1.032-.506-2.552-.846-3.377-.755-.825.09-2.775.233-4.333.317-1.751.094-2.677.622-2.424 1.381.262.787 2.611 1.246 6.525 1.275 6.717.05 9.734 1.226 3.369 1.314-2.178.03-4.913.645-6.079 1.368-1.767 1.096-2.263 1.083-2.986-.079-.502-.807-1.737-1.166-2.933-.854-1.218.319-2.593-.1-3.352-1.022-1.128-1.37-.947-1.478 1.463-.878 2.057.513 2.75.317 2.75-.775 0-.803-.45-1.738-1-2.078-.55-.34-1.007-.029-1.015.691-.01.799-.302.92-.75.309-.907-1.234-4.593-1.809-5.539-.863m27.808 2.736c.413 2.91 1.161 4.303 1.904 3.544.224-.229-.205-1.767-.952-3.417l-1.36-3 .408 2.873M64 50c0 .55.45 1 1 1s1-.45 1-1-.45-1-1-1-1 .45-1 1m53.027 1.373c-.565.565-1.027 1.387-1.027 1.827 0 1.166 8.77.982 9.5-.2.34-.55 1.027-1 1.528-1 1.123 0 .013 3.229-1.455 4.235-1.6 1.095-7.362.916-8.083-.251-.346-.559-1.069-.744-1.608-.411-1.917 1.184 1.363 3.427 4.99 3.412 4.465-.019 5.716-.77 7.027-4.22.724-1.902.7-2.895-.08-3.377-1.803-1.114-9.681-1.126-10.792-.015M42 52.393c0 .216.698.661 1.552.989.89.341 1.291.173.941-.393-.587-.951-2.493-1.406-2.493-.596m97.355 8.774c.287.921-.122 1.913-.912 2.217-1.155.443-1.209 1.036-.276 3.082 1.326 2.911 2.358 3.215 3.226.952.955-2.489.727-3.888-.975-5.977-1.244-1.527-1.471-1.585-1.063-.274M111.5 71c.995 1.1 1.969 2 2.163 2 .195 0-.208-.9-.895-2s-1.661-2-2.164-2c-.502 0-.099.9.896 2m.764 9.718c1.52.229 3.77.223 5-.014 1.23-.237-.014-.425-2.764-.418-2.75.008-3.756.202-2.236.432m49.09 4.734c3.204 2.97 3.408 6.596.687 12.227-1.357 2.809-1.796 5.246-1.429 7.937.498 3.655.436 3.77-1.042 1.943-1.479-1.829-1.57-1.665-1.57 2.809 0 3.092-.37 4.521-1.06 4.095-.73-.451-.859 1.325-.413 5.691.669 6.564 1.473 9.092 1.473 4.635 0-1.399.649-3.083 1.442-3.741 1.188-.986 1.844-.435 3.724 3.128 3.741 7.087 4.834 9.919 4.834 12.521 0 3.463 4.474 16.118 9.571 27.076l4.314 9.272 2.379-2.272c2.086-1.993 2.193-2.427.866-3.523-.952-.787-1.071-1.25-.321-1.25.655 0 1.22-1.012 1.254-2.25.062-2.194.091-2.188 1.157.25.601 1.375 1.022 2.838.936 3.25-.086.412.519.75 1.344.75 1.747 0 1.981-3.232.442-6.108-.582-1.088-1.202-5.445-1.377-9.685-.255-6.147-1.04-9.39-3.877-16.022-4.771-11.152-5.203-13.47-3.105-16.672 2.29-3.494.527-5.692-2.858-3.565-1.224.77-3.8 1.69-5.725 2.045-3.065.567-3.511.39-3.588-1.423-.138-3.235-1.355-11.989-2.89-20.781C165.182 88.115 162.446 83 159.68 83c-.535 0 .219 1.104 1.674 2.452M150.2 85.2c-1.397 1.397-1.615 4.8-.307 4.8.491 0 1.161-.698 1.489-1.552.341-.89.173-1.291-.393-.941-1.713 1.059-1.071-.724.761-2.115.963-.731 1.278-1.343.7-1.36-.577-.018-1.59.508-2.25 1.168m5.052.415c.964 1.126 1.414 2.42 1 2.876-.414.457-.228.53.413.163.64-.367 1.42-.101 1.732.59.312.691.463.41.335-.625-.127-1.034-1.357-2.593-2.732-3.465-2.472-1.568-2.48-1.563-.748.461M108 86.031c0 .533.675.969 1.5.969s1.5-.177 1.5-.393c0-.216-.675-.652-1.5-.969-.825-.316-1.5-.139-1.5.393M98.509 88c.874 3.052 2.504 5.008 2.459 2.95-.017-.797-.739-2.35-1.603-3.45-1.527-1.943-1.551-1.929-.856.5M46.55 99.201c-4.153 5.06-7.55 9.549-7.55 9.975C39 111.754 86.678 164 89.03 164c1.274 0 2.178-5.852 2.334-15.105l.136-8.076-23.733-15.159c-13.053-8.338-23.74-15.392-23.75-15.676-.009-.284 2.345-1.959 5.233-3.721 8.883-5.422 8.404-4.883 6.346-7.157-1.272-1.406-1.7-3.091-1.411-5.561.227-1.95.301-3.545.164-3.545-.138 0-3.647 4.14-7.799 9.201m29.482-5.951c.03 3.074.111 3.145 1.5 1.309C79.423 92.059 79.408 90 77.5 90c-1.032 0-1.49 1.014-1.468 3.25m73.66-.319c.3 1.148 1.073 1.713 1.907 1.393 1.86-.714 1.777-1.966-.181-2.717-2.239-.859-2.287-.823-1.726 1.324m7.758.417c-1.539 1.688-2.521 4.652-1.541 4.652 1.398 0 3.28-2.802 2.924-4.354-.248-1.08-.601-1.156-1.383-.298m6.629 4.235c.048 1.165.285 1.402.604.605.289-.722.253-1.585-.079-1.917-.332-.332-.568.258-.525 1.312m-39.207 4.08c-1.07 1.296-1.097 1.755-.122 2.083 1.527.514 1.767 13.254.25 13.254-.55 0-1 .852-1 1.893 0 1.988 1.842 3.107 5.113 3.107 2.329 0 3.708-2.874 1.913-3.984-.883-.546-1.222-3.392-1.119-9.399.133-7.857-.022-8.617-1.758-8.617-1.047 0-2.522.748-3.277 1.663m12.147-.186c-1.672 2.014-2.509 18.227-1.034 20.006 1.53 1.842 5.381 1.986 6.818.255.576-.695 1.194-5.506 1.372-10.692l.325-9.428-3.235-.68c-2.083-.437-3.595-.246-4.246.539m2.731 4.099c-.412.417-.75 3.697-.75 7.291 0 4.569.316 6.217 1.052 5.481.582-.582.917-3.834.75-7.29-.166-3.432-.64-5.898-1.052-5.482M154.141 123c0 .825.386 2.4.859 3.5.542 1.261.859 1.445.859.5 0-.825-.386-2.4-.859-3.5-.542-1.261-.859-1.445-.859-.5m2.479 5.805c-.598.969.911 8.076 1.917 9.024.391.369.441-.229.111-1.329-.33-1.1-.707-3.463-.837-5.25-.25-3.439-.394-3.734-1.191-2.445m22.63 5.857c-1.666.672-1.597 4.034.103 5.038.744.44 1.609 2.767 1.921 5.171.549 4.221-.621 4.705-1.522.629-.405-1.829-.508-1.849-1.207-.243-.554 1.274.25 2.88 2.923 5.839 3.674 4.067 4.179 6.444.806 3.797-1.598-1.255-1.643-1.226-.457.29.724.925 2.186 1.617 3.25 1.537 1.063-.08 1.933-.218 1.933-.307s-.695-2.131-1.545-4.537c-.849-2.407-1.28-5.432-.957-6.722.324-1.29.103-2.93-.49-3.644-.593-.715-1.014-1.684-.935-2.155.228-1.361-1.243-5.363-1.94-5.276-.348.043-1.195.306-1.883.583m-16.027 6.895c-1.925 1.348-2.22 2.455-2.204 8.25.011 3.681.578 8.845 1.26 11.476l1.241 4.782 4.322-4.404 4.323-4.404-2.833-8.599c-1.557-4.728-3.069-8.611-3.359-8.628-.291-.016-1.528.671-2.75 1.527M187.158 151c0 1.375.227 1.938.504 1.25.278-.687.278-1.812 0-2.5-.277-.687-.504-.125-.504 1.25M50.976 167.902C44.389 174.448 39 180.364 39 181.047c0 1.352 18.87 20.957 23.109 24.01l2.609 1.878 9.266-8.717c6.115-5.753 9.139-9.3 8.891-10.429-.308-1.408-1.977-.679-9.398 4.105l-9.023 5.817-11.337-7.265c-6.235-3.996-11.775-7.704-12.31-8.239-.908-.908 8.954-7.981 19.967-14.319l3.969-2.285 9.687 6.199c9.463 6.055 11.57 7.036 11.57 5.388C86 175.921 65.43 156 64.12 156c-.643 0-6.558 5.356-13.144 11.902M185 158.882c0 .55.45 1.278 1 1.618.55.34 1 .168 1-.382s-.45-1.278-1-1.618c-.55-.34-1-.168-1 .382M57.75 173.115c-1.513 1.129-2.75 2.402-2.75 2.83 0 .427 2.587 1.026 5.75 1.33 5.639.541 11.564 2.806 12.869 4.918.363.587.259.872-.23.634-6.102-2.968-9.322-3.935-13.696-4.114L54.5 178.5l-.311 3.766c-.255 3.076.234 4.311 2.673 6.75 2.428 2.428 3.823 2.984 7.484 2.984 8.104 0 12.662-7.349 9.489-15.297-2.199-5.507-10.908-7.45-16.085-3.588m132.402 12.577c-.658 1.177-.469 2.421.622 4.085 1.187 1.812 1.275 2.575.363 3.138-.663.41-.921 1.485-.574 2.389.355.923-.069 2.345-.966 3.242-2.171 2.171-2.007 4.189.403 4.954 1.1.349 2 1.264 2 2.032 0 1.66-2.979 3.385-4.75 2.75-.687-.247-1.25.039-1.25.635 0 1.498 1.624 1.355 5.497-.483 3.282-1.557 3.298-1.6 3.012-8-.28-6.28.542-8.202 2.005-4.684.689 1.658.89 4.946.611 10.015-.19 3.444-5.66 6.407-10.625 5.753-3.44-.452-3.656-.379-1.538.524 1.354.578 4.504.917 7 .754 4.518-.295 4.546-.319 6.287-5.569 1.455-4.385 1.562-6.068.636-10-.612-2.6-1.308-6.289-1.547-8.198-.238-1.908-.975-3.814-1.636-4.234-2.029-1.29-4.554-.881-5.55.897m-24.759 8.89c.334.87.607 1.995.607 2.5 0 .505.45.918 1 .918s1-1.125 1-2.5c0-1.63-.56-2.5-1.607-2.5-1.055 0-1.398.544-1 1.582m-80.952 2.936c1.068.815 2.215 1.482 2.55 1.482.335 0 .254 3.679-.181 8.176s-.642 8.326-.46 8.507c.498.499 82.884.417 83.383-.082.237-.238.126-2.878-.247-5.867l-.679-5.435-13.654-.656c-18.947-.91-45.823-3.326-57.153-5.138-5.225-.836-10.85-1.734-12.5-1.995-2.828-.447-2.889-.39-1.059 1.008M212 220.5c0 .825.675 1.5 1.5 1.5s1.5-.675 1.5-1.5-.675-1.5-1.5-1.5-1.5.675-1.5 1.5m-133.591 1.877c-.949 2.474.05 10.953 1.341 11.378.864.285 1.272-.925 1.321-3.922l.07-4.333 1.889 4.25c1.33 2.995 2.491 4.25 3.929 4.25 1.845 0 2.041-.623 2.041-6.5 0-3.667-.436-6.5-1-6.5-.55 0-1.029 1.912-1.064 4.25l-.064 4.25-1.684-3.5c-2.412-5.012-5.594-6.713-6.779-3.623M92 227.5v6.615l4.172-.308c4.949-.364 6.612-2.807 1.911-2.807-3.504 0-4.212-1.695-.911-2.18 3.201-.472 3.544-2.82.411-2.82-3.452 0-3.316-1.783.167-2.184 4.265-.49 3.242-2.28-1.5-2.623l-4.25-.308v6.615m10-5.434c0 .586.528 2.048 1.174 3.25.645 1.201 1.451 3.534 1.791 5.184.651 3.168 3.762 4.345 3.235 1.225-.165-.977.703-3.559 1.928-5.739 2.55-4.537 1.672-6.685-1.256-3.073l-1.956 2.412-1.515-2.162c-1.607-2.295-3.401-2.873-3.401-1.097m12 5.517c0 4.822.334 6.472 1.25 6.168.688-.229 1.494-1.729 1.792-3.333l.543-2.918.697 3.325c.92 4.384 3.72 3.933 5.124-.827l1.032-3.498.345 3.812c.563 6.219 2.717 3.924 2.717-2.895 0-5.241-.227-5.917-1.991-5.917-1.283 0-2.562 1.211-3.601 3.411l-1.61 3.411-.728-2.901c-.748-2.978-2.121-4.379-4.32-4.406-.875-.01-1.25 1.96-1.25 6.568m18.699-5.888c-.452.744-3.699 11.269-3.699 11.987 0 1.068 2.888.053 3.362-1.182.779-2.031 3.629-1.895 5.196.248 2.379 3.254 2.88.19.906-5.539-1.806-5.237-4.419-7.737-5.765-5.514M142 227.5c0 5.111.321 6.5 1.5 6.5.833 0 1.5-.889 1.5-2 0-1.1.434-2 .965-2 .53 0 1.446.9 2.035 2 1.363 2.547 4.535 2.775 3.488.25-.857-2.066-.855-3.034.017-5.851.906-2.927-1.877-5.399-6.076-5.399H142v6.5m21 0c0 5.111.321 6.5 1.5 6.5.833 0 1.5-.889 1.5-2 0-1.1.434-2 .965-2 .53 0 1.446.9 2.035 2 .589 1.1 1.73 2 2.535 2 1.73 0 1.806-.494.462-3.005-.67-1.252-.67-2.079 0-2.493 1.727-1.068 1.107-5.376-.931-6.467-1.064-.569-3.314-1.035-5-1.035H163v6.5m-18-2c0 1.03.655 1.52 1.75 1.31 2.108-.406 1.975-2.181-.197-2.633-.906-.189-1.553.362-1.553 1.323m21 0c0 1.03.655 1.52 1.75 1.31 2.108-.406 1.975-2.181-.197-2.633-.906-.189-1.553.362-1.553 1.323m-31.921 1.083c.048 1.165.285 1.402.604.605.289-.722.253-1.585-.079-1.917-.332-.332-.568.258-.525 1.312M212 233.5c0 .825.675 1.5 1.5 1.5s1.5-.675 1.5-1.5-.675-1.5-1.5-1.5-1.5.675-1.5 1.5m-107 12c0 3.18.252 3.489 2.75 3.384 1.692-.071 2.077-.292 1-.573-1.164-.304-1.75-1.438-1.75-3.384 0-1.61-.45-2.927-1-2.927s-1 1.575-1 3.5m6 0c0 3.18.252 3.489 2.75 3.384 1.692-.071 2.077-.292 1-.573-.963-.252-1.75-.842-1.75-1.311s.787-1.059 1.75-1.311c1.667-.435 1.667-.463 0-.573-.963-.064-1.75-.533-1.75-1.043 0-.509.787-1.132 1.75-1.384 1.077-.281.692-.502-1-.573-2.498-.105-2.75.204-2.75 3.384m7.04-2.048c-1.844 2.222-.328 5.548 2.527 5.548 1.656 0 2.428-.559 2.418-1.75-.012-1.384-.198-1.462-.889-.372-.48.758-1.373 1.069-1.984.691-1.857-1.147-1.247-3.579 1.138-4.538 2.209-.888 2.211-.905.122-.968-1.17-.034-2.669.59-3.332 1.389M125 245.5c0 3.18.252 3.489 2.75 3.384 1.692-.071 2.077-.292 1-.573-.963-.252-1.75-.842-1.75-1.311s.787-1.059 1.75-1.311c1.667-.435 1.667-.463 0-.573-.963-.064-1.75-.533-1.75-1.043 0-.509.787-1.132 1.75-1.384 1.077-.281.692-.502-1-.573-2.498-.105-2.75.204-2.75 3.384m6.392-.927c-.365 1.454-.155 3.064.481 3.7.836.836 1.144.494 1.195-1.323l.067-2.45 1.085 2.25c1.751 3.631 3.795 2.798 3.68-1.5-.089-3.359-.184-3.489-.911-1.25l-.811 2.5-.706-2.25c-.951-3.034-3.283-2.85-4.08.323m8.608.927c0 3.373.197 3.61 2.75 3.316 2.319-.266 2.75-.787 2.75-3.316s-.431-3.05-2.75-3.316c-2.553-.294-2.75-.057-2.75 3.316m1.404-1.111c-.652 1.699.225 3.611 1.655 3.611 1.261 0 1.207-3.718-.066-4.504-.554-.343-1.269.059-1.589.893" fill="#1976D2" fill-rule="evenodd"/><path fill-opacity=".358" d="m183.766 8.971-3.266 2.97 7.437.03 7.437.029-2.874-3c-3.582-3.738-4.653-3.742-8.734-.029M54.813 7.683c.721.289 1.584.253 1.916-.079.332-.332-.258-.568-1.312-.525-1.165.048-1.402.285-.604.604M121.5 10.39c-4.373 2.405-6.094 3.952-6.345 5.705l-.346 2.405 2.346-2.122c3.563-3.223 9.616-3.59 15.159-.918 2.849 1.373 4.759 1.82 4.978 1.164.195-.585 2.41 1.05 4.921 3.634l4.566 4.699.43-2.926c.236-1.609-.012-3.714-.55-4.677-1.464-2.616-7.943-8.321-9.659-8.506-.825-.088-2.625-.265-4-.393s-3.175-.487-4-.798c-.825-.312-4.2.918-7.5 2.733m49.25 4.272c.688.278 1.813.278 2.5 0 .688-.277.125-.504-1.25-.504s-1.937.227-1.25.504m9.366 1.588c.088 1.712.226 1.829.576.488.253-.969.945-1.462 1.538-1.096.642.397.79.199.365-.487-1.187-1.922-2.602-1.297-2.479 1.095m4.491-.668c-.803 2.091-.866 1.989 1.243 1.989 1.284 0 1.708-.546 1.384-1.785-.578-2.21-1.82-2.307-2.627-.204m5.116.466c.233.89 1.065 1.619 1.85 1.619.785 0 1.427-.729 1.427-1.619 0-.909-.812-1.619-1.85-1.619-1.213 0-1.705.557-1.427 1.619m6.435-.048c0 1.375.227 1.938.504 1.25.278-.687.278-1.812 0-2.5-.277-.687-.504-.125-.504 1.25M199 16c0 .905.848 1.571 2 1.571 1.152 0 2-.666 2-1.571 0-.905-.848-1.571-2-1.571-1.152 0-2 .666-2 1.571m6.158 0c0 1.375.227 1.938.504 1.25.278-.687.278-1.812 0-2.5-.277-.687-.504-.125-.504 1.25m-32.079 1.583c.048 1.165.285 1.402.604.605.289-.722.253-1.585-.079-1.917-.332-.332-.568.258-.525 1.312m-7.829 9.528c-2.338 2.729-4.25 5.431-4.25 6.003C161 34.429 186.736 60 188.059 60 189.339 60 215 34.336 215 33.056c0-.54-1.913-3.216-4.25-5.945l-4.25-4.964h-37l-4.25 4.964m-65.823-1.346c-.59.404-1.361 1.516-1.713 2.47-.516 1.399-.308 1.556 1.073.811.942-.509 2.969-1.191 4.504-1.515 1.535-.324 2.521-1.026 2.191-1.56-.703-1.137-4.506-1.266-6.055-.206M107.5 27c-.34.55.084 1 .941 1S110 27.55 110 27s-.423-1-.941-1-1.219.45-1.559 1m61.5 3.968v5.048l4.542-.172c2.498-.094 4.776-.549 5.061-1.01.285-.462 1.43-.352 2.543.244 2.623 1.404 3.309.64 1.858-2.07-1.436-2.684-.607-5.177 1.458-4.384.976.374 1.538 1.861 1.538 4.066 0 4.432 2.368 3.997 2.813-.517.173-1.745.735-3.173 1.25-3.173.516 0 .937-.675.937-1.5 0-1.934-9.608-2.168-10.254-.25-.309.918-.796.961-1.833.164-.777-.598-3.325-1.179-5.663-1.291l-4.25-.204v5.049M192 31c0 4.86 1.425 6.662 2.68 3.391.568-1.48.691-1.48 1.519 0 1.172 2.095 5.407 2.077 6.215-.027.572-1.49.805-1.476 2.613.16 2.815 2.548 3.409 1.284 1.744-3.712-1.924-5.773-4.293-6.14-5.861-.907-1.313 4.383-2.954 4.776-2.139.512.558-2.919-.94-4.377-4.521-4.402-2.035-.014-2.25.462-2.25 4.985m-75.505-2.992c-.279.452.058 1.049.749 1.328.691.278.131.577-1.244.664l-2.5.158 2.783 1.015c3.338 1.218 5.894.453 5.131-1.537-.64-1.668-4.172-2.837-4.919-1.628M173.5 29c-1.71.735-1.746.87-.25.93 2.58.103 2.131 2.053-.5 2.17-2.149.095-2.138.133.25.853 2.994.903 5.361-.848 4.43-3.275-.714-1.862-1.043-1.918-3.93-.678m-48.312 1.739c.251 1.304 1.458 1.791 4.824 1.947 4.351.202 4.403.17 1.714-1.049-1.525-.691-2.463-1.567-2.083-1.947.38-.379-.543-.69-2.05-.69-2.064 0-2.657.429-2.405 1.739m47.784 8.687c-.566.568-.499 1.439.174 2.25.818.985.76 1.324-.224 1.324-.909 0-1 .322-.289 1.033 1.294 1.294 4.367.199 4.367-1.557 0-.72-.562-1.536-1.25-1.814-.94-.379-.917-.524.094-.583.739-.043 1.579.821 1.866 1.921.288 1.1.921 2 1.407 2 .485 0 .883-.9.883-2s.502-2 1.117-2c.624 0 .886.882.593 2-.437 1.673-.006 2.019 2.634 2.118 1.736.066 3.606.017 4.156-.108.55-.124 4.188-.162 8.085-.084 6.527.131 7.074-.017 6.937-1.872-.081-1.107-.364-2.229-.627-2.493-.853-.852-9.988-1.22-10.481-.422-.263.426-1.076.544-1.806.264-2.437-.935-16.698-.916-17.636.023m-57.946 3.42c-.558 2.01-1.017 5.573-1.02 7.918-.003 2.345-.557 5.146-1.231 6.225-.825 1.321-.895 2.291-.214 2.972s1.064.444 1.174-.725c.09-.955.532-3.536.983-5.736l.819-4h4.982c2.739 0 5.319.45 5.731 1 .476.635 1.071.502 1.629-.363.742-1.151.963-1.151 1.421 0 .298.75.578-.099.621-1.887.043-1.788-.371-3.25-.921-3.25s-1 .745-1 1.655c0 1.497-.167 1.508-1.75.113-1.163-1.025-2.888-1.367-5.142-1.021-2.707.416-3.224.242-2.558-.863.708-1.175.579-1.177-.858-.012-1.476 1.198-1.69 1.134-1.677-.5.009-1.029.467-2.547 1.019-3.372.874-1.308 1.134-1.276 2.034.25.567.962 1.936 1.75 3.041 1.75s1.731-.45 1.391-1c-.34-.55.084-1 .941-1s1.559-.424 1.559-.943c0-.518-2.241-.925-4.979-.904-4.869.038-5.003.12-5.995 3.693m69.053-1.263c.048 1.165.285 1.402.604.605.289-.722.253-1.585-.079-1.917-.332-.332-.568.258-.525 1.312M187 41.5c0 .825.45 1.5 1 1.5s1-.675 1-1.5-.45-1.5-1-1.5-1 .675-1 1.5m6.079.083c.048 1.165.285 1.402.604.605.289-.722.253-1.585-.079-1.917-.332-.332-.568.258-.525 1.312m5 0c.048 1.165.285 1.402.604.605.289-.722.253-1.585-.079-1.917-.332-.332-.568.258-.525 1.312m-57 2c.048 1.165.285 1.402.604.605.289-.722.253-1.585-.079-1.917-.332-.332-.568.258-.525 1.312m-7.412 4.084c-.367.366-.667 1.533-.667 2.593 0 1.086-.873 2.156-2 2.45-2.154.563-2.725 2.882-.863 3.502 2.584.862-4.819 4.236-9.351 4.261l-4.713.027 2.63 2.445c2.883 2.68 1.425 4.37-1.511 1.751-1.51-1.347-1.846-1.342-3.119.045-1.253 1.364-1.037 1.902 1.766 4.406 1.756 1.569 4.284 2.853 5.618 2.853 1.334 0 2.703.45 3.043 1 .34.55 1.746 1 3.125 1 1.378 0 3.377.466 4.441 1.035 1.333.714 1.934.714 1.934 0 0-.569.62-1.035 1.378-1.035.757 0 1.937-.675 2.622-1.5.685-.825 2.09-1.5 3.122-1.5 1.033 0 1.878-.675 1.878-1.5s.419-1.5.932-1.5c.512 0 .803-1.013.646-2.25-.377-2.975-2.68-7.75-3.739-7.75-1.176 0-1.05 2.751.161 3.5 1.532.947 1.188 6.099-.501 7.5-2.451 2.035-9.659 2.378-13.779.656-5.36-2.239-4.932-4.261.78-3.685 1.613.163 1.758-.047.75-1.085-1.799-1.851-1.616-2.234 2-4.183 4.584-2.471 8.022-7.772 7.19-11.086-.626-2.496-2.341-3.382-3.773-1.95m.348 3.024c.009.445.452 1.484.985 2.309.835 1.293.971 1.266.985-.191.008-.93-.435-1.969-.985-2.309-.55-.34-.993-.254-.985.191m-15.248 5.476c.864.864 1.763.881 3.45.068 2.144-1.033 2.073-1.104-1.167-1.167-2.63-.052-3.172.21-2.283 1.099M78 84.75c0 .477.661 1.741 1.468 2.809 3.111 4.113.567 9.941-5.421 12.422-3.346 1.386-3.17 3.019.325 3.019 2.751 0 7.137-4.51 8.016-8.242.372-1.577.045-4.179-.769-6.128C80.258 85.374 78 82.952 78 84.75m8 9.809c0 .879-.48 1.263-1.1.879-1.879-1.161.71 2.861 3.173 4.929l2.224 1.868-.649-3.243c-.356-1.783-.648-3.861-.648-4.617 0-.756-.675-1.375-1.5-1.375s-1.5.702-1.5 1.559m-26.418 4.309c-.566.916 5.12 3.763 5.919 2.964.241-.24-.868-1.208-2.463-2.15-1.595-.943-3.151-1.309-3.456-.814m102.091.542c-.298.776-.356 6.241-.129 12.143.424 11.012 1.853 15.447 4.979 15.447.812 0 1.477.9 1.477 2s.387 2 .86 2 .737 1.724.586 3.831c-.15 2.108.181 4.47.735 5.25.809 1.139.899 1.08.457-.299-.303-.945-.12-1.984.406-2.309.526-.325.956-1.041.956-1.591s-.408-.748-.907-.44c-.498.309-.661-.378-.361-1.525.415-1.586.748-1.766 1.391-.752.516.815.852.893.862.202.008-.624.941-1.376 2.073-1.672 1.539-.402 1.977-.117 1.737 1.133-.178.92-.841 1.672-1.475 1.672-.634 0-1.491.338-1.903.75-1.115 1.114 1.42.908 3.676-.3 1.874-1.003 1.886-1.177.274-3.907-.929-1.571-2.245-2.643-2.927-2.382-.681.262-1.578-.075-1.993-.747-.482-.779-.34-.966.39-.515 1.385.857 6.163-3.681 6.163-5.854 0-2.071-2.878-1.96-5.304.205-1.893 1.689-1.937 1.671-1.262-.5.633-2.033.369-2.25-2.736-2.25-3.194 0-3.48-.264-4.056-3.75-.341-2.062-.625-5.524-.631-7.691-.01-3.733-.093-3.839-1.569-2-1.45 1.806-1.516 1.61-.939-2.809.608-4.659.242-6.133-.83-3.34m-68.875 12.334c-.426 7.705-.016 10.207 1.326 8.09 1.141-1.8 1.11-13.572-.038-14.281-.506-.313-1.082 2.455-1.288 6.191M177.5 150c.34.55 1.068 1 1.618 1s.722-.45.382-1c-.34-.55-1.068-1-1.618-1s-.722.45-.382 1M60.465 171.905c-2.192.939-5.007 3.886-4.345 4.549.223.223 2.988.547 6.143.72 3.155.173 5.737.571 5.737.885 0 .314 1.628 1.347 3.619 2.296l3.618 1.726-.68-2.791c-1.428-5.863-8.721-9.685-14.092-7.385m-6.281 9.845c.201 1.751.832 2.639 1.735 2.444 1.128-.244 1.174-.011.222 1.137-.973 1.171-.591 1.954 2.031 4.161 2.687 2.26 3.895 2.628 7.182 2.187 4.58-.614 9.263-4.627 8.308-7.119-.942-2.454-9.216-5.56-14.811-5.56-4.847 0-4.975.076-4.667 2.75m9.419 2.083c-.283.459.12.834.897.834s1.18-.375.897-.834c-.283-.458-.687-.833-.897-.833-.21 0-.614.375-.897.833m7.715 1.818c.358.358-.13 1.283-1.084 2.055-1.556 1.26-1.503 1.292.516.314 2.38-1.153 3.049-3.02 1.083-3.02-.641 0-.873.293-.515.651m94.697 9.099c-.008 1.238.435 2.25.985 2.25 1.253 0 1.253-1.061 0-3-.784-1.213-.972-1.069-.985.75m26.143 2.25c0 1.375.227 1.938.504 1.25.278-.687.278-1.812 0-2.5-.277-.687-.504-.125-.504 1.25m-105.992 1.155c.916.74 1.833 2.245 2.038 3.345.241 1.294 1.065 1.924 2.334 1.786 11.606-1.269 14.722-1.315 16.021-.237.787.653 2.325.953 3.418.667 1.664-.435 1.83-.223 1.017 1.295-.534.998-1.539 2.045-2.233 2.326-.984.399-.959.722.117 1.475.758.53 1.093 1.426.744 1.991-.349.564-.069 1.254.622 1.533.899.362.917.529.065.585-.655.043-1.469-.371-1.809-.921-.34-.55-1.068-1-1.618-1s-.746.412-.435.915c.311.503 0 1.142-.691 1.421-.691.278.994.633 3.744.788 2.75.155-.625.549-7.5.876-7.669.365 3.086.673 27.829.797l40.33.203-.58-3-1.158-6-.58-3h-8.825c-11.428 0-43.709-2.604-56.516-4.559-18.399-2.809-18.201-2.794-16.334-1.286m21.647 4.528c.721.289 1.584.253 1.916-.079.332-.332-.258-.568-1.312-.525-1.165.048-1.402.285-.604.604m-2.48 4.773c0 .801.375 1.224.834.941.458-.283.833-.938.833-1.456s-.375-.941-.833-.941c-.459 0-.834.655-.834 1.456m57.48-.773c.721.289 1.584.253 1.916-.079.332-.332-.258-.568-1.312-.525-1.165.048-1.402.285-.604.604M111.5 208c.34.55.816 1 1.059 1s.441-.45.441-1-.477-1-1.059-1-.781.45-.441 1m39.167 1.667c-1.472 1.471-.45 1.828 4.083 1.428 3.965-.349 4.337-.541 2.25-1.157-3.342-.987-5.524-1.081-6.333-.271M193 211.2c-3.348 1.719-3.386 1.797-.872 1.798 1.445.001 3.196-.684 3.892-1.522 1.847-2.225.938-2.308-3.02-.276m-44.5 2.8c-1.403.603-.21.851 4 .83 4.449-.022 5.354-.236 3.5-.83-3.271-1.048-5.062-1.048-7.5 0m-32.687.683c.721.289 1.584.253 1.916-.079.332-.332-.258-.568-1.312-.525-1.165.048-1.402.285-.604.604M79 227.43c0 6.509 1.736 7.548 2.205 1.32l.32-4.25 1.396 4.25c1.114 3.393 1.868 4.25 3.737 4.25 2.172 0 2.342-.399 2.342-5.5 0-3.025-.45-5.5-1-5.5s-1 1.875-1 4.167c0 4.579-.915 4.406-2.584-.489-.7-2.05-1.853-3.291-3.25-3.498-2-.295-2.166.107-2.166 5.25m13 .07v5.5h4c4.389 0 5.517-1.677 1.469-2.184-3.204-.4-3.698-2.212-.719-2.636 2.638-.374 3.065-1.876.5-1.759-2.938.133-2.938-1.899 0-2.237 4.23-.487 3.258-2.184-1.25-2.184h-4v5.5m11.98-1.54c1.111 2.178 2.02 4.653 2.02 5.5 0 .847.45 1.54 1 1.54s1-.874 1-1.943c0-1.068.944-3.543 2.099-5.5 1.739-2.947 1.836-3.557.567-3.557-.842 0-1.817.9-2.166 2s-1.024 2-1.5 2-1.151-.9-1.5-2-1.289-2-2.088-2c-1.175 0-1.066.757.568 3.96m10.02 1.47c0 3.064.45 5.57 1 5.57s1-1.575 1-3.5.45-3.5 1-3.5 1 .863 1 1.918c0 5.436 3.655 7.055 4.654 2.061.873-4.364 2.346-4.702 2.346-.538 0 1.957.45 3.559 1 3.559s1-2.475 1-5.5c0-4.816-.246-5.5-1.981-5.5-1.335 0-2.195.897-2.638 2.75-1.09 4.559-1.684 4.805-2.894 1.195-.771-2.299-1.876-3.551-3.321-3.765-2-.295-2.166.107-2.166 5.25m17.081-.371c-1.32 5.152-.722 7.837 1.044 4.683 1.193-2.132 4.875-2.315 4.875-.242 0 .825.639 1.5 1.419 1.5 1.157 0 1.229-.695.392-3.75-1.491-5.442-2.652-7.25-4.657-7.25-1.296 0-2.126 1.366-3.073 5.059m10.919.384c0 4.273.347 5.557 1.5 5.557.833 0 1.5-.889 1.5-2 0-1.1.342-2 .759-2 .418 0 1.322.9 2.009 2 .687 1.1 1.947 2 2.799 2 1.006 0 1.267-.44.742-1.25-.445-.687-.809-3.05-.809-5.25 0-3.991-.01-4.001-4.25-4.307l-4.25-.308v5.558m16 .975c0 10.513 3.313 9.582-34.107 9.582H91v2.5c0 2-.5 2.5-2.5 2.5s-2.5.5-2.5 2.5c0 1.981.505 2.5 2.43 2.5 1.76 0 2.519.621 2.75 2.25l.32 2.25 35.75.263 35.75.262v-2.512c0-2.014.497-2.513 2.5-2.513 3.437 0 3.664-4.696.25-5.18-1.603-.228-2.227-.967-2.171-2.57.058-1.64-.486-2.25-2.007-2.25-1.972 0-2.067-.44-1.724-8 .246-5.396.004-8-.742-8-.693 0-1.106 2.396-1.106 6.418m5-.918c0 4.222.348 5.5 1.5 5.5.833 0 1.5-.889 1.5-2 0-1.1.434-2 .965-2 .53 0 1.446.9 2.035 2 .589 1.1 1.785 2 2.658 2 1.313 0 1.367-.265.314-1.534-1.032-1.243-1.027-1.995.028-3.966 1.832-3.424-.102-5.5-5.122-5.5H163v5.5m-18-2c0 .833.889 1.5 2 1.5s2-.667 2-1.5-.889-1.5-2-1.5-2 .667-2 1.5m21 0c0 .833.889 1.5 2 1.5s2-.667 2-1.5-.889-1.5-2-1.5-2 .667-2 1.5m-32.326.908c-.563 1.466.085 2.592 1.493 2.592 1.116 0 1.067-2.737-.062-3.435-.493-.305-1.137.075-1.431.843M105 245.476v4.476l5.669-.226 5.668-.226.004-4c.003-3.591-.27-4.032-2.669-4.316-2.444-.29-2.672-.02-2.672 3.156 0 2.98-.284 3.399-2 2.95-1.417-.371-2-1.364-2-3.407 0-1.585-.45-2.883-1-2.883s-1 2.014-1 4.476m13.75-3.396c-3.627 2.113-1.18 8.53 2.952 7.742 2.233-.425 3.1-4.822.951-4.822-.818 0-1.713.563-1.991 1.25-.32.793-.533.653-.583-.383-.043-.899.866-1.881 2.022-2.183 1.156-.303 1.804-1.029 1.441-1.617-.818-1.323-2.505-1.319-4.792.013m6.25 3.434v4.472l4-.157c2.905-.114 4.008-.591 4.03-1.743.028-1.445.114-1.444.961.005.624 1.067 2.433 1.614 5.488 1.66 6.798.103 9.63-3.533 5.595-7.184-2.727-2.468-5.435-1.618-6.198 1.945l-.639 2.988-.15-3.5c-.136-3.161-.281-3.328-1.501-1.721-1.012 1.335-1.475 1.453-1.851.473-.295-.769-2.4-1.39-5.118-1.508l-4.617-.201v4.471m5.195-.014c.02 1.65.244 2.204.498 1.231.254-.973.237-2.323-.037-3-.274-.677-.481.119-.461 1.769m11.805 0c0 .825.45 1.5 1 1.5s1-.675 1-1.5-.45-1.5-1-1.5-1 .675-1 1.5" fill="#1976D2" fill-rule="evenodd"/></svg>